<svg width="480" height="512" viewBox="0 0 29 36" fill="none" xmlns="http://www.w3.org/2000/svg">
<g clip-path="url(#clip0)">
<path d="M26.4825 4.48032C26.2718 4.3475 26.0175 4.39002 25.8422 4.58751C24.2931 6.32391 22.8696 7.1671 21.4862 7.1671C20.1028 7.1671 18.7594 6.36678 17.0902 4.55892C13.4659 0.693104 9.90449 0.700249 5.74284 4.39457C5.45129 4.65182 5.45129 4.65182 5.50274 12.0905C5.50274 15.0131 5.54276 18.6359 5.50274 19.1433C5.42371 19.5254 5.60743 19.9152 5.91305 20.014C6.09684 20.0734 6.2922 20.0149 6.43454 19.8579C7.88519 18.4589 9.65618 17.6776 11.488 17.6284C12.6808 17.6365 13.8555 17.9939 14.9179 18.6717C16.0789 19.4496 17.3685 19.8801 18.6851 19.9293C25.5907 19.9293 26.7283 5.80227 26.774 5.20204C26.8056 4.90924 26.6897 4.62243 26.4825 4.48032Z" fill="#F4E2E2"/>
<path d="M3.74192 0H3.20457C2.55102 0 2.02124 0.662227 2.02124 1.47916V34.5208C2.02124 35.3378 2.55102 36 3.20457 36H3.74192C4.39547 36 4.92525 35.3378 4.92525 34.5208V1.47916C4.92525 0.662227 4.39547 0 3.74192 0Z" fill="#F4E2E2"/>
</g>
<defs>
<clipPath id="clip0">
<rect width="28.8" height="36" fill="white"/>
</clipPath>
</defs>
</svg>
