<svg width="36" height="32" viewBox="0 0 36 32" fill="none" xmlns="http://www.w3.org/2000/svg">
<path d="M21.7244 6.05181C23.389 7.09546 24.5562 8.86154 24.7687 10.9116C25.4475 11.2287 26.201 11.4112 26.9998 11.4112C29.916 11.4112 32.2796 9.04754 32.2796 6.13178C32.2796 3.21557 29.916 0.851959 26.9998 0.851959C24.1114 0.852858 21.7685 3.17424 21.7244 6.05181ZM18.2655 16.8621C21.1817 16.8621 23.5453 14.4981 23.5453 11.5823C23.5453 8.66656 21.1813 6.30295 18.2655 6.30295C15.3498 6.30295 12.9848 8.66701 12.9848 11.5828C12.9848 14.4985 15.3498 16.8621 18.2655 16.8621ZM20.5051 17.222H16.025C12.2974 17.222 9.26484 20.255 9.26484 23.9826V29.4615L9.27877 29.5473L9.65616 29.6654C13.2135 30.7769 16.304 31.1476 18.8478 31.1476C23.8162 31.1476 26.6961 29.731 26.8735 29.6407L27.2262 29.4624H27.2639V23.9826C27.2653 20.255 24.2327 17.222 20.5051 17.222ZM29.2403 11.7715H24.7948C24.7467 13.5501 23.9874 15.1518 22.7865 16.3037C26.0999 17.289 28.5242 20.3615 28.5242 23.9907V25.6791C32.9135 25.5182 35.4429 24.2742 35.6096 24.1906L35.9623 24.0118H36V18.5312C36 14.804 32.9674 11.7715 29.2403 11.7715ZM9.00112 11.4121C10.034 11.4121 10.995 11.1106 11.8091 10.5971C12.0678 8.90917 12.9727 7.43421 14.2652 6.42965C14.2706 6.33081 14.28 6.23287 14.28 6.13313C14.28 3.21692 11.916 0.853307 9.00112 0.853307C6.08446 0.853307 3.7213 3.21692 3.7213 6.13313C3.7213 9.04799 6.08446 11.4121 9.00112 11.4121ZM13.7427 16.3037C12.5477 15.1576 11.7911 13.5645 11.7358 11.7966C11.5709 11.7845 11.4079 11.7715 11.2398 11.7715H6.76016C3.03257 11.7715 0 14.804 0 18.5312V24.0109L0.0139274 24.0954L0.391314 24.2144C3.24508 25.1054 5.79199 25.516 8.00419 25.6454V23.9907C8.00509 20.3615 10.4285 17.2899 13.7427 16.3037Z" fill="#F4E2E2"/>
</svg>
