<svg width="512" height="512" viewBox="0 0 36 36" fill="none" xmlns="http://www.w3.org/2000/svg">
<g clip-path="url(#clip0)">
<path d="M9 14.1402H1.28787C0.579916 14.1402 0.00753138 14.7125 0 15.428V34.7084C0 35.4238 0.579916 35.9962 1.28787 35.9962H9C9.71548 35.9962 10.2879 35.4163 10.2879 34.7084V15.428C10.2879 14.7125 9.70795 14.1402 9 14.1402Z" fill="#F4E2E2"/>
<path d="M21.856 0.00376892H14.1438C13.4359 0.00376892 12.856 0.576154 12.856 1.2841V34.7084C12.856 35.4239 13.4359 35.9962 14.1438 35.9962H21.856C22.5715 35.9962 23.1438 35.4163 23.1438 34.7084V1.29164C23.1438 0.576154 22.5639 0.00376892 21.856 0.00376892Z" fill="#F4E2E2"/>
<path d="M34.7124 10.2841H27.0003C26.2848 10.2841 25.7124 10.8565 25.7124 11.572V34.7084C25.7124 35.4239 26.2923 35.9963 27.0003 35.9963H34.7124C35.4279 35.9963 36.0003 35.4163 36.0003 34.7084V11.572C36.0003 10.8565 35.4204 10.2841 34.7124 10.2841Z" fill="#F4E2E2"/>
</g>
<defs>
<clipPath id="clip0">
<rect width="36" height="36" fill="white"/>
</clipPath>
</defs>
</svg>
